<?xml version="1.0" standalone="no"?>
<!DOCTYPE svg PUBLIC "-//W3C//DTD SVG 20010904//EN"
 "http://www.w3.org/TR/2001/REC-SVG-20010904/DTD/svg10.dtd">
<svg version="1.0" xmlns="http://www.w3.org/2000/svg"
 width="3000.000000pt" height="537.000000pt" viewBox="0 0 3000.000000 537.000000"
 preserveAspectRatio="xMidYMid meet">

<g transform="translate(0.000000,537.000000) scale(0.100000,-0.100000)"
fill="#000000" stroke="none">
<path d="M2735 4719 c-60 -18 -83 -50 -124 -170 -16 -46 -244 -705 -506 -1464
-381 -1103 -477 -1390 -477 -1432 -1 -60 22 -103 78 -148 36 -30 75 -61 149
-120 20 -16 68 -55 105 -85 38 -30 107 -86 156 -125 48 -38 117 -95 154 -125
139 -113 387 -308 433 -341 l49 -34 543 -8 c299 -5 815 -5 1147 0 550 7 606
10 631 25 16 11 46 18 77 18 31 0 61 -7 77 -18 24 -15 72 -18 443 -25 525 -9
1799 0 1861 14 30 7 57 22 78 43 28 29 36 53 77 222 103 432 103 433 24 547
-27 41 -50 76 -50 80 0 6 53 37 63 37 3 0 7 -8 9 -17 9 -32 536 -807 585 -860
44 -47 53 -52 103 -58 30 -3 267 -5 525 -3 l470 3 37 23 c49 30 73 73 87 152
107 627 243 1415 278 1618 l27 153 63 40 c96 60 106 63 278 69 140 4 166 8
207 28 l47 23 48 -25 c27 -13 54 -30 60 -38 11 -14 1 -113 -76 -748 -27 -226
-35 -326 -29 -355 4 -22 84 -222 176 -444 181 -439 197 -468 277 -490 54 -15
960 -15 1018 0 23 6 51 18 63 27 55 45 51 24 140 909 46 461 86 857 89 880 6
41 6 41 70 58 67 19 227 18 244 -1 4 -5 -5 -209 -22 -454 l-30 -445 21 -100
c43 -205 171 -761 180 -785 15 -39 63 -77 112 -91 63 -17 2195 -17 2258 0 60
17 108 68 121 129 12 56 35 2692 29 3387 -3 416 -3 420 -26 456 -12 21 -35 45
-50 55 -26 18 -76 19 -1147 22 -616 2 -1139 0 -1163 -3 -51 -7 -107 -58 -120
-108 l-8 -32 -7 32 c-9 46 -70 101 -121 108 -22 3 -545 5 -1161 3 -1093 -3
-1121 -3 -1153 -23 -17 -10 -40 -36 -50 -56 l-19 -37 -17 33 c-10 18 -32 43
-49 56 l-32 24 -1155 0 c-1123 0 -1156 -1 -1187 -19 -17 -11 -40 -34 -49 -52
l-18 -33 -21 29 c-12 17 -35 40 -51 52 l-29 23 -1155 0 c-1114 0 -1156 -1
-1186 -19 -17 -10 -39 -32 -48 -47 l-17 -29 -44 43 c-31 31 -55 46 -82 50 -61
11 -2254 6 -2288 -4z m2245 -151 c0 -2 -18 -66 -39 -143 l-38 -140 -339 0
c-186 0 -372 4 -411 9 l-73 8 0 -52 c0 -46 2 -51 18 -44 19 9 782 19 782 10 0
-6 -206 -735 -221 -783 l-11 -33 -161 0 -162 0 -41 -143 -41 -142 162 -5 161
-5 -116 -411 c-65 -226 -120 -415 -123 -420 -3 -5 -113 -9 -245 -9 -310 0
-303 -4 -256 161 17 59 17 63 0 89 -18 27 -20 27 -81 21 -35 -3 -85 -2 -110 4
-56 12 -85 6 -85 -20 0 -22 27 -30 108 -30 81 0 102 -11 102 -54 0 -18 -27
-117 -60 -219 -33 -101 -60 -195 -60 -208 0 -12 10 -33 22 -46 21 -23 22 -23
295 -23 150 0 273 -3 273 -7 0 -5 -17 -70 -37 -145 l-38 -138 -1187 0 -1187 0
44 128 c24 70 249 721 500 1447 250 726 457 1326 460 1333 3 9 233 12 1100 12
602 0 1095 -1 1095 -2z m2510 -5 c0 -5 -27 -133 -60 -286 -33 -154 -60 -281
-60 -283 0 -2 -174 -4 -386 -4 l-386 0 -35 30 -34 30 -144 0 -145 0 0 -24 c0
-13 6 -27 13 -29 6 -3 -27 -6 -74 -6 l-87 -1 -43 -175 -43 -175 -98 0 -98 0 0
-30 0 -30 90 0 c50 0 90 -1 90 -2 0 -2 -9 -37 -20 -78 -11 -41 -20 -81 -20
-87 0 -10 136 -13 645 -13 355 0 645 -2 645 -4 0 -2 -27 -129 -60 -283 -33
-153 -60 -281 -60 -285 0 -5 -297 -8 -660 -8 l-659 0 -10 -37 c-21 -78 -131
-534 -131 -543 0 -6 248 -10 666 -10 629 0 665 -1 660 -17 -2 -10 -31 -141
-62 -290 l-58 -273 -1186 0 -1187 0 58 208 c31 114 208 756 394 1427 185 671
341 1235 346 1253 l11 32 1094 0 c602 0 1094 -3 1094 -7z m2510 -8 c0 -8 -18
-136 -40 -285 -22 -149 -40 -273 -40 -275 0 -3 -144 -5 -320 -5 -176 0 -320
-2 -320 -4 0 -3 -52 -322 -115 -710 -63 -388 -115 -708 -115 -711 0 -2 -102
-4 -227 -2 -167 1 -227 -1 -230 -10 -8 -23 73 -33 261 -33 l188 0 -6 -32 c-3
-18 -33 -204 -66 -413 -73 -457 -67 -425 -87 -425 -17 0 -17 -6 3 155 6 45 5
49 -9 35 -18 -17 -47 -118 -47 -162 l0 -28 -475 0 c-375 0 -473 3 -470 13 2 6
101 525 220 1152 119 627 218 1148 221 1158 5 16 -15 17 -316 17 l-320 0 5 23
c7 28 115 550 115 554 0 2 493 3 1095 3 957 0 1095 -2 1095 -15z m2510 -22 c0
-21 -9 -150 -20 -288 -11 -137 -20 -251 -20 -252 0 -2 -144 -3 -319 -3 l-319
0 -7 -87 c-3 -49 -8 -94 -10 -100 -3 -9 -29 -13 -84 -13 l-79 0 -7 -36 c-3
-20 -4 -38 -2 -41 3 -2 22 3 42 11 21 9 58 16 82 16 l45 0 -5 -32 c-3 -18 -36
-361 -73 -763 -36 -401 -68 -736 -70 -742 -2 -9 -29 -13 -89 -13 -84 0 -85 0
-85 -25 0 -25 1 -25 85 -25 l85 0 -5 -37 c-3 -21 -12 -114 -20 -208 -9 -93
-18 -187 -21 -208 l-6 -37 -491 2 -491 3 -9 35 c-10 38 3 172 52 545 15 116
28 224 28 240 1 29 167 1401 179 1478 l6 37 -321 0 -320 0 4 28 c7 36 75 534
75 544 0 5 493 8 1095 8 l1095 0 0 -37z m2516 -24 c-3 -34 -6 -165 -6 -290 l0
-229 -637 -2 -638 -3 -6 -160 c-4 -88 -10 -220 -13 -292 l-7 -133 652 0 651 0
-6 -132 c-3 -73 -6 -204 -6 -290 l0 -158 -655 0 -655 0 -4 -22 c-7 -36 -25
-551 -20 -560 3 -4 305 -8 671 -8 l666 0 -6 -157 c-4 -87 -7 -218 -7 -290 l0
-133 -858 0 -858 0 3 98 c5 139 10 158 46 192 32 30 33 30 146 30 l114 0 33
36 c31 32 34 41 34 98 0 35 -3 84 -6 110 -6 37 -9 44 -20 35 -9 -7 -14 -32
-14 -66 0 -61 -19 -107 -59 -140 -23 -20 -37 -22 -142 -23 -111 0 -116 -1
-140 -26 -23 -24 -24 -32 -27 -185 l-3 -159 -311 0 -310 0 6 68 c4 37 20 265
36 507 17 242 60 858 95 1370 36 511 65 940 65 952 l0 23 1101 0 1102 0 -7
-61z m-10719 -2316 c-2 -10 -15 -57 -28 -105 l-24 -87 -235 -3 c-129 -2 -245
-1 -258 1 -13 2 -30 14 -39 28 -13 20 -14 30 -4 63 15 52 55 98 94 109 18 5
137 10 266 10 218 1 233 0 228 -16z"/>
<path d="M3521 3928 c-93 -290 -161 -507 -161 -517 0 -8 44 -11 162 -9 l161 3
88 285 c49 157 89 288 89 293 0 4 -72 7 -159 7 l-159 0 -21 -62z"/>
<path d="M3146 2743 c-77 -237 -156 -491 -156 -501 0 -9 47 -12 164 -12 l165
0 41 133 c80 257 128 412 135 435 l6 22 -165 0 -164 0 -26 -77z"/>
<path d="M8185 4300 c-20 -32 57 -43 240 -34 122 6 135 9 135 26 0 17 -12 18
-184 18 -113 0 -187 -4 -191 -10z"/>
<path d="M9465 4300 c-20 -32 57 -43 240 -34 122 6 135 9 135 26 0 17 -12 18
-184 18 -113 0 -187 -4 -191 -10z"/>
<path d="M10416 4215 c-3 -9 -6 -31 -6 -48 l0 -32 67 3 c38 2 227 -13 422 -32
355 -35 391 -35 391 -2 0 20 -19 23 -350 56 -168 16 -341 37 -385 46 -133 27
-132 27 -139 9z"/>
<path d="M13159 3373 c-1 -21 -2 -54 -4 -73 -8 -110 -7 -364 2 -367 18 -6 32
80 38 228 3 79 7 168 9 197 3 49 2 52 -20 52 -21 0 -24 -5 -25 -37z"/>
<path d="M14190 3081 c0 -16 12 -19 143 -23 152 -6 228 0 234 18 5 14 -96 24
-254 24 -113 0 -123 -1 -123 -19z"/>
<path d="M17484 4719 c-42 -12 -82 -54 -94 -98 -5 -20 -55 -302 -110 -626
l-101 -590 31 -473 c16 -260 30 -486 30 -502 l0 -30 -272 0 c-418 0 -432 -8
-468 -255 -11 -77 -41 -284 -66 -460 l-46 -320 6 -260 c4 -143 12 -280 18
-304 14 -55 65 -107 120 -122 49 -13 1861 -17 1937 -4 34 6 55 18 93 56 26 26
48 42 48 35 0 -20 64 -76 101 -86 47 -14 982 -13 1031 1 21 5 54 26 73 46 l34
35 46 -40 c33 -29 59 -43 88 -47 23 -3 261 -5 529 -3 l486 3 46 33 c56 39 75
40 106 7 13 -14 40 -29 59 -34 50 -13 1106 -21 1581 -13 386 7 396 7 431 30
47 29 101 29 140 -1 31 -22 33 -22 557 -30 290 -4 736 -4 992 0 419 7 469 10
493 25 35 24 119 24 154 1 25 -16 82 -19 636 -27 334 -4 850 -4 1146 0 l539 9
68 48 c38 27 98 71 134 98 36 28 94 72 130 99 36 27 121 92 190 145 69 53 147
112 174 133 27 20 83 64 126 97 43 33 110 85 150 115 195 148 206 161 204 249
-2 85 -198 640 -242 685 -45 47 -100 56 -330 56 l-196 0 56 53 c31 28 80 74
110 101 195 178 219 211 203 293 -8 46 -210 625 -227 652 -7 12 -33 31 -58 43
-40 20 -67 23 -237 28 l-192 5 121 130 c154 166 167 185 182 242 10 39 10 58
0 98 -21 80 -202 594 -217 615 -7 11 -26 30 -42 42 l-30 23 -1155 0 c-1106 0
-1156 -1 -1185 -18 -18 -12 -172 -218 -400 -537 -203 -286 -373 -516 -376
-512 -3 4 -61 229 -129 500 -120 479 -125 493 -158 527 -27 27 -45 35 -86 40
-28 3 -269 5 -536 3 l-485 -3 -35 -27 c-27 -21 -113 -162 -371 -615 -185 -323
-340 -607 -346 -631 -12 -48 -14 -42 77 -432 110 -470 140 -602 140 -611 0 -5
-20 -9 -45 -9 -25 0 -45 4 -45 9 0 35 -424 2212 -436 2236 -8 18 -29 43 -47
56 l-32 24 -530 0 -530 0 -32 -24 c-17 -13 -39 -38 -49 -56 l-17 -33 -19 37
c-10 20 -33 46 -50 56 -32 20 -57 20 -1188 20 l-1155 0 -32 -24 c-18 -14 -41
-42 -52 -63 l-18 -38 -6 28 c-8 38 -51 79 -96 92 -45 12 -1003 12 -1047 -1z
m996 -159 c0 -5 25 -294 55 -642 30 -348 55 -635 55 -638 0 -4 -26 -7 -57 -8
-99 -3 -101 -37 -1 -41 34 -1 63 -3 63 -4 1 -1 30 -333 64 -737 34 -404 65
-759 68 -787 l6 -53 -825 0 -825 0 28 59 c65 136 72 172 66 336 -3 83 -7 158
-9 169 -3 17 9 18 256 16 l259 -1 -7 88 c-3 48 -9 136 -12 196 l-7 107 87 0
87 0 -3 28 c-3 27 -3 27 -90 30 l-88 3 0 37 c0 21 -11 222 -25 447 -13 226
-36 604 -49 840 -14 237 -28 460 -31 498 l-6 67 470 0 c295 0 471 -4 471 -10z
m2515 -22 c3 -18 77 -496 165 -1063 88 -566 169 -1086 180 -1154 12 -68 19
-125 18 -126 -2 -2 -121 7 -265 18 -144 12 -265 18 -269 15 -3 -4 -1 -15 4
-25 9 -16 42 -20 271 -39 143 -11 262 -22 265 -25 4 -4 76 -451 76 -474 0 -13
-70 -15 -504 -15 l-504 0 -6 27 c-6 31 -146 1115 -146 1132 0 7 -56 11 -165
11 -152 0 -165 -1 -165 -18 0 -10 9 -90 20 -178 11 -87 40 -330 65 -539 24
-209 47 -392 50 -407 l5 -28 -510 0 c-347 0 -510 3 -510 10 0 10 -123 1319
-225 2397 -25 260 -45 482 -45 493 0 20 3 20 1095 20 l1094 0 6 -32z m1468
-1121 c120 -633 221 -1160 224 -1169 4 -17 39 -18 505 -20 l501 -3 58 -270
c32 -148 60 -278 63 -287 4 -17 -49 -18 -1013 -18 l-1017 0 -37 227 c-43 260
-41 244 -24 239 6 -3 46 -7 89 -10 73 -5 76 -5 71 15 -7 27 -42 39 -113 39
-33 0 -62 5 -66 11 -6 10 -394 2366 -394 2391 0 5 210 8 468 8 l467 0 218
-1153z m1066 1111 c1 -5 -3 -8 -9 -8 -5 0 -10 12 -9 28 0 24 1 25 9 7 5 -11 9
-23 9 -27z m1206 -1128 l291 -1165 230 -3 229 -3 20 -42 c13 -27 25 -41 35
-38 8 2 126 6 261 9 235 4 247 3 253 -14 3 -11 33 -118 66 -239 33 -121 63
-228 66 -238 5 -16 -46 -17 -1012 -15 l-1017 3 -24 105 c-13 58 -118 526 -233
1040 -115 514 -225 1002 -245 1085 -24 101 -39 192 -46 285 -11 154 -27 320
-36 368 l-5 32 438 -2 438 -3 291 -1165z m1374 1137 c13 -22 32 -99 55 -227
39 -212 70 -320 92 -320 17 0 17 3 0 87 -17 80 -86 468 -86 483 0 7 291 10
863 10 l862 0 98 -283 c53 -155 97 -286 97 -290 0 -4 -286 -7 -636 -7 -505 0
-635 -3 -631 -12 4 -12 160 -516 173 -560 5 -17 45 -18 654 -18 l648 0 20 -57
c11 -32 56 -163 100 -290 l81 -233 -654 0 c-518 0 -655 -3 -655 -12 0 -7 40
-139 88 -293 l88 -280 669 -5 670 -5 97 -280 c53 -154 97 -283 97 -287 1 -5
-532 -8 -1184 -8 -652 0 -1185 1 -1185 3 0 1 -31 112 -70 247 -38 135 -70 248
-70 252 0 5 32 8 71 8 74 0 109 11 109 35 0 15 -44 24 -144 28 l-59 2 -313
1105 c-173 608 -323 1135 -333 1173 l-19 67 193 0 193 0 21 -33z m-174 -2307
c98 -7 97 -7 -55 -7 -85 -1 -177 2 -205 7 -41 6 -32 7 55 7 58 1 150 -3 205
-7z m-8813 -125 l18 -120 -42 -140 c-23 -77 -41 -152 -40 -167 l2 -28 -179 0
-179 0 -6 108 c-3 59 -9 189 -12 290 l-6 182 213 -2 214 -3 17 -120z"/>
<path d="M18160 2160 l0 -22 234 4 c129 2 238 7 242 11 18 18 -23 22 -242 25
l-234 3 0 -21z"/>
<path d="M19811 3953 c0 -21 15 -153 32 -293 l32 -255 163 -3 c126 -2 162 0
162 10 0 7 -16 134 -35 283 -19 148 -35 275 -35 282 0 10 -36 13 -160 13
l-160 0 1 -37z"/>
</g>
</svg>
